<?xml version="1.0" standalone="no"?>
<!DOCTYPE svg PUBLIC "-//W3C//DTD SVG 20010904//EN"
 "http://www.w3.org/TR/2001/REC-SVG-20010904/DTD/svg10.dtd">
<svg version="1.0" xmlns="http://www.w3.org/2000/svg"
 width="300.000000pt" height="300.000000pt" viewBox="0 0 300.000000 300.000000"
 preserveAspectRatio="xMidYMid meet">
<metadata>
Created by potrace 1.11, written by Peter Selinger 2001-2013
</metadata>
<g transform="translate(0.000000,300.000000) scale(0.100000,-0.100000)"
fill="#000000" stroke="none">
<path d="M2459 2456 c-2 -2 -25 -6 -51 -9 -36 -5 -67 -19 -127 -61 -99 -69
-120 -79 -204 -101 -64 -17 -68 -20 -87 -62 -15 -34 -29 -48 -62 -63 -43 -19
-86 -55 -213 -180 l-70 -69 -70 -6 c-38 -3 -110 -7 -160 -11 -49 -3 -110 -7
-135 -9 -25 -2 -99 5 -165 16 -78 13 -132 18 -155 13 -19 -5 -39 -8 -45 -9 -5
0 -16 -4 -22 -8 -7 -5 -13 -6 -13 -3 0 15 -103 -36 -267 -130 -100 -58 -188
-107 -195 -108 -7 -2 -39 -11 -72 -20 -43 -13 -73 -16 -115 -11 -31 4 -58 7
-61 7 -7 0 -30 17 -70 51 -66 56 -54 161 28 235 62 56 76 62 141 63 50 1 69
-4 99 -23 78 -52 104 -59 188 -53 43 3 79 7 80 8 1 1 -24 30 -55 65 -49 53
-67 65 -112 77 -49 12 -62 12 -144 -7 -49 -11 -101 -22 -114 -24 -14 -3 -54
-28 -89 -57 -47 -38 -72 -67 -93 -110 l-28 -58 19 -63 c15 -47 31 -73 69 -111
66 -66 130 -87 276 -90 61 -1 113 -3 117 -4 3 0 -12 -47 -34 -103 -23 -57 -46
-120 -51 -140 -6 -21 -15 -38 -19 -38 -4 0 -8 -5 -8 -11 0 -6 -23 -64 -51
-128 -43 -100 -59 -125 -114 -181 -57 -58 -65 -71 -70 -115 -9 -68 -21 -122
-40 -174 -8 -24 -15 -47 -15 -51 0 -4 37 -19 82 -34 70 -22 89 -24 121 -16 20
6 37 16 38 23 0 7 2 23 3 37 2 18 -8 36 -36 64 -37 37 -38 41 -27 70 36 91
110 164 266 264 76 48 171 110 211 137 l73 49 39 -40 c25 -25 40 -51 44 -74 5
-32 0 -41 -69 -115 -73 -78 -79 -88 -77 -131 1 -18 98 -182 132 -221 5 -7 15
-24 22 -38 6 -14 14 -25 17 -26 3 -1 53 -2 110 -3 95 -2 107 0 130 20 l26 22
-20 48 c-20 46 -21 47 -70 51 -27 2 -59 5 -70 7 -11 3 -27 5 -36 5 -13 1 -16
14 -18 59 -1 58 -1 59 46 103 27 25 77 65 112 89 54 38 69 55 97 114 19 38 37
91 40 117 4 27 8 49 11 49 2 0 45 -26 96 -58 51 -32 100 -62 110 -65 11 -4 38
3 67 18 27 14 52 25 55 25 3 0 3 -26 0 -58 -3 -31 -8 -95 -10 -142 -3 -47 -7
-125 -10 -175 -4 -82 -2 -96 24 -160 l28 -70 101 -3 c91 -3 104 -1 123 17 l22
20 -27 40 c-16 22 -38 47 -50 55 -61 43 -60 29 -6 191 27 81 51 150 53 152 4
3 33 -7 64 -22 2 -1 7 -35 13 -76 6 -41 12 -90 15 -109 3 -19 7 -61 9 -92 3
-41 14 -73 38 -115 l34 -58 107 -3 c107 -3 107 -3 117 23 25 67 25 67 -55 117
l-75 47 4 43 c3 24 8 77 12 118 3 41 8 84 9 95 1 11 3 27 4 37 1 12 15 18 50
23 46 6 50 9 76 58 16 29 41 77 58 107 35 65 128 161 252 260 50 39 93 77 96
83 4 7 12 35 18 63 l12 51 52 -3 c94 -4 105 2 112 55 13 99 15 106 50 131 44
32 49 46 71 181 3 16 -2 31 -13 41 -18 15 -27 21 -116 67 -29 15 -47 32 -49
45 -2 15 -25 32 -78 59 l-75 38 -26 75 c-15 41 -29 77 -30 79 -19 17 -138 42
-150 31z"/>
</g>
</svg>
